<svg width="1128" height="614" xmlns="http://www.w3.org/2000/svg" xmlns:xlink="http://www.w3.org/1999/xlink"><svg width="98.23" height="98.23" viewBox="-1 -1 98.23 98.23" x="813.17" y="514" xmlns="http://www.w3.org/2000/svg"><path d="M73.099 15.973l-9.058.004c-7.102 0-8.477 3.375-8.477 8.328v10.921h16.938l-.006 17.106H55.564v43.895H37.897V52.332h-14.77V35.226h14.77V22.612C37.897 7.972 46.84 0 59.9 0l13.2.021-.001 15.952z" fill="#fff"/></svg><svg width="514" height="514" viewBox="-1 -1 440.55 440.55" x="614" xmlns="http://www.w3.org/2000/svg"><path d="M409.132 114.573c-19.608-33.596-46.205-60.194-79.798-79.8-33.598-19.607-70.277-29.408-110.063-29.408-39.781 0-76.472 9.804-110.063 29.408-33.596 19.605-60.192 46.204-79.8 79.8C9.803 148.168 0 184.854 0 224.63c0 47.78 13.94 90.745 41.827 128.906 27.884 38.164 63.906 64.572 108.063 79.227 5.14.954 8.945.283 11.419-1.996 2.475-2.282 3.711-5.14 3.711-8.562 0-.571-.049-5.708-.144-15.417a2549.81 2549.81 0 0 1-.144-25.406l-6.567 1.136c-4.187.767-9.469 1.092-15.846 1-6.374-.089-12.991-.757-19.842-1.999-6.854-1.231-13.229-4.086-19.13-8.559-5.898-4.473-10.085-10.328-12.56-17.556l-2.855-6.57c-1.903-4.374-4.899-9.233-8.992-14.559-4.093-5.331-8.232-8.945-12.419-10.848l-1.999-1.431c-1.332-.951-2.568-2.098-3.711-3.429-1.142-1.331-1.997-2.663-2.568-3.997-.572-1.335-.098-2.43 1.427-3.289 1.525-.859 4.281-1.276 8.28-1.276l5.708.853c3.807.763 8.516 3.042 14.133 6.851 5.614 3.806 10.229 8.754 13.846 14.842 4.38 7.806 9.657 13.754 15.846 17.847 6.184 4.093 12.419 6.136 18.699 6.136 6.28 0 11.704-.476 16.274-1.423 4.565-.952 8.848-2.383 12.847-4.285 1.713-12.758 6.377-22.559 13.988-29.41-10.848-1.14-20.601-2.857-29.264-5.14-8.658-2.286-17.605-5.996-26.835-11.14-9.235-5.137-16.896-11.516-22.985-19.126-6.09-7.614-11.088-17.61-14.987-29.979-3.901-12.374-5.852-26.648-5.852-42.826 0-23.035 7.52-42.637 22.557-58.817-7.044-17.318-6.379-36.732 1.997-58.24 5.52-1.715 13.706-.428 24.554 3.853 10.85 4.283 18.794 7.952 23.84 10.994 5.046 3.041 9.089 5.618 12.135 7.708 17.705-4.947 35.976-7.421 54.818-7.421s37.117 2.474 54.823 7.421l10.849-6.849c7.419-4.57 16.18-8.758 26.262-12.565 10.088-3.805 17.802-4.853 23.134-3.138 8.562 21.509 9.325 40.922 2.279 58.24 15.036 16.18 22.559 35.787 22.559 58.817 0 16.178-1.958 30.497-5.853 42.966-3.9 12.471-8.941 22.457-15.125 29.979-6.191 7.521-13.901 13.85-23.131 18.986-9.232 5.14-18.182 8.85-26.84 11.136-8.662 2.286-18.415 4.004-29.263 5.146 9.894 8.562 14.842 22.077 14.842 40.539v60.237c0 3.422 1.19 6.279 3.572 8.562 2.379 2.279 6.136 2.95 11.276 1.995 44.163-14.653 80.185-41.062 108.068-79.226 27.88-38.161 41.825-81.126 41.825-128.906-.01-39.771-9.818-76.454-29.414-110.049z" fill="#FFF"/></svg><svg width="614" height="614" viewBox="-1 -1 614 614" xmlns="http://www.w3.org/2000/svg"><path d="M306.768 346.814h.131c4.615 0 9.176-1.339 12.866-3.777l1.001-.643c.218-.142.446-.271.675-.424l11.658-9.645 278.259-229.624c-.576-.795-1.557-1.339-2.602-1.339H3.233c-.751 0-1.448.272-2.003.729l291.125 239.954c3.669 3.038 8.904 4.769 14.413 4.769zM0 133.899v340.37l208.55-168.471L0 133.899zm403.668 173.042L612 474.356V135.031l-208.332 171.91zm-66.237 54.644c-8.305 6.814-19.168 10.57-30.576 10.57-11.451 0-22.304-3.734-30.587-10.516l-47.765-39.394L0 506.806v.587c0 1.753 1.502 3.244 3.276 3.244h605.491c1.741 0 3.232-1.491 3.232-3.255v-.544L383.693 323.4l-46.262 38.185z" fill="#fff"/></svg><svg width="99.4" height="99.4" viewBox="-1 -1 99.4 99.4" x="713.77" y="514" xmlns="http://www.w3.org/2000/svg"><path d="M12.501 0h72.393c6.875 0 12.5 5.09 12.5 12.5v72.395c0 7.41-5.625 12.5-12.5 12.5H12.501C5.624 97.395 0 92.305 0 84.895V12.5C0 5.09 5.624 0 12.501 0zm58.447 10.821a4.395 4.395 0 0 0-4.383 4.385v10.495a4.396 4.396 0 0 0 4.383 4.385h11.008a4.398 4.398 0 0 0 4.385-4.385V15.206a4.397 4.397 0 0 0-4.385-4.385H70.948zm15.439 30.367h-8.572a28.486 28.486 0 0 1 1.25 8.355c0 16.2-13.556 29.332-30.275 29.332-16.718 0-30.272-13.132-30.272-29.332 0-2.904.438-5.708 1.25-8.355h-8.945v41.141a3.884 3.884 0 0 0 3.872 3.872h67.822a3.883 3.883 0 0 0 3.872-3.872V41.188h-.002zM48.789 29.533c-10.802 0-19.56 8.485-19.56 18.953s8.758 18.953 19.56 18.953c10.803 0 19.562-8.485 19.562-18.953s-8.758-18.953-19.562-18.953z" fill="#fff"/></svg><svg width="95.06" height="95.06" viewBox="-1 -1 95.06 95.06" x="911.4" y="514" xmlns="http://www.w3.org/2000/svg"><path d="M11.185.08C5.004.08.001 5.092 0 11.259c0 6.173 5.003 11.184 11.186 11.184 6.166 0 11.176-5.011 11.176-11.184C22.362 5.091 17.351.08 11.185.08zM1.538 30.926h19.287V92.98H1.538zm68.387-1.543c-9.382 0-15.673 5.144-18.248 10.022h-.258v-8.479H32.92v62.053h19.27V62.281c0-8.093 1.541-15.932 11.575-15.932 9.89 0 10.022 9.256 10.022 16.451v30.178H93.06V58.942c0-16.707-3.605-29.559-23.135-29.559z" fill="#fff"/></svg><svg width="99.77" height="99.77" viewBox="-1 -1 99.77 99.77" x="614" y="514" xmlns="http://www.w3.org/2000/svg"><path d="M4.723 49.69c-.209 0-.38.166-.407.395l-.961 8.781.961 8.586c.027.229.198.396.407.396.206 0 .373-.164.406-.395l1.094-8.588-1.094-8.781c-.033-.233-.2-.394-.406-.394zm-3.615 3.364c-.203 0-.365.156-.392.383L0 58.866l.716 5.337c.026.226.188.382.392.382.198 0 .359-.156.391-.38l.847-5.339-.847-5.434c-.032-.222-.193-.378-.391-.378zm7.456-5.086c-.258 0-.464.202-.49.48l-.913 10.418.913 10.037c.026.279.232.48.49.48.253 0 .459-.201.489-.479l1.036-10.039-1.036-10.418c-.03-.277-.236-.479-.489-.479zm3.873-.368c-.304 0-.551.242-.575.564L11 58.869l.862 10.354c.024.32.271.563.575.563.299 0 .545-.243.573-.563l.979-10.354-.979-10.707c-.028-.32-.274-.562-.573-.562zm4.559 21.71v.002zm0-20.375c-.024-.365-.308-.644-.656-.644-.353 0-.635.278-.657.647l-.814 9.93.814 10.441c.022.367.305.646.657.646.349 0 .632-.279.656-.646l.923-10.441-.923-9.933zm3.28-6.95a.754.754 0 0 0-.74.733l-.764 16.155.764 10.44a.755.755 0 0 0 .74.729c.392 0 .716-.322.74-.732v.004l.864-10.44-.864-16.156c-.025-.411-.349-.733-.74-.733zm3.905-3.721a.836.836 0 0 0-.824.815l-.715 19.85.716 10.375c.02.455.38.813.823.813.44 0 .804-.358.823-.815v.006l.809-10.379-.809-19.85a.836.836 0 0 0-.823-.815zm4.06-1.794a.916.916 0 0 0-.907.9l-.665 21.508.665 10.268c.018.5.416.895.907.895a.92.92 0 0 0 .907-.898v.006l.751-10.27-.751-21.509c-.021-.504-.419-.9-.907-.9zm5.019.177a.999.999 0 0 0-.989-.985.997.997 0 0 0-.991.985l-.616 22.231.617 10.204a.994.994 0 0 0 .99.978.997.997 0 0 0 .989-.981l.694-10.198-.694-22.234zm0 32.431v.005zm3.072-32.929c-.59 0-1.061.469-1.075 1.068l-.566 21.665.568 10.105a1.075 1.075 0 0 0 1.073 1.064c.586 0 1.057-.472 1.073-1.07v.008l.638-10.109-.638-21.666a1.077 1.077 0 0 0-1.073-1.065zm4.093.707a1.16 1.16 0 0 0-1.158 1.153l-.517 20.873.517 10.045a1.157 1.157 0 0 0 2.314-.007v.008l.58-10.043-.58-20.875a1.159 1.159 0 0 0-1.156-1.154zm4.81-3.836a1.22 1.22 0 0 0-1.354-.01 1.257 1.257 0 0 0-.572 1.036l-.004.234-.466 24.598.47 9.984c0 .016.002.027.003.042a1.248 1.248 0 0 0 1.237 1.186c.337 0 .644-.139.868-.363.225-.223.367-.531.373-.873l.052-.986.471-8.984-.522-24.839a1.267 1.267 0 0 0-.556-1.025zm.555 35.842v-.003.004-.009.005zm3.539-38.197a1.29 1.29 0 0 0-.673-.19c-.316 0-.607.114-.836.302a1.346 1.346 0 0 0-.49 1.019l-.003.136-.54 26.956.276 4.982.267 4.85a1.337 1.337 0 0 0 1.326 1.311c.719 0 1.312-.594 1.322-1.32v.012l.59-9.834-.588-27.095a1.345 1.345 0 0 0-.651-1.129zm36.419 15.398c-1.646 0-3.22.334-4.65.933-.959-10.837-10.047-19.339-21.133-19.339-2.714 0-5.357.534-7.693 1.437-.907.352-1.147.712-1.156 1.414v38.168c.009.735.579 1.308 1.298 1.379.031.004 33.336 0 33.336 0 6.642 0 12.025-5.324 12.025-11.967-.001-6.641-5.384-12.025-12.027-12.025z" fill="#fff"/></svg><svg width="92.68" height="92.68" viewBox="-1 -1 92.68 92.68" x="1006.46" y="514" xmlns="http://www.w3.org/2000/svg"><g fill="#fff"><path d="M82.287 45.907c-.937-4.071-4.267-7.074-8.275-7.521-9.489-1.06-19.098-1.065-28.66-1.06-9.566-.005-19.173 0-28.665 1.06-4.006.448-7.334 3.451-8.27 7.521-1.334 5.797-1.35 12.125-1.35 18.094 0 5.969 0 12.296 1.334 18.093.936 4.07 4.264 7.073 8.272 7.521 9.49 1.061 19.097 1.065 28.662 1.061 9.566.005 19.171 0 28.664-1.061 4.006-.448 7.336-3.451 8.272-7.521 1.333-5.797 1.34-12.124 1.34-18.093-.001-5.97.009-12.297-1.324-18.094zM28.9 50.4h-5.54v29.438h-5.146V50.4h-5.439v-4.822H28.9V50.4zm13.977 29.439h-4.629v-2.785c-1.839 2.108-3.585 3.136-5.286 3.136-1.491 0-2.517-.604-2.98-1.897-.252-.772-.408-1.994-.408-3.796V54.311h4.625v18.795c0 1.084 0 1.647.042 1.799.111.718.462 1.082 1.082 1.082.928 0 1.898-.715 2.924-2.166v-19.51h4.629l.001 25.528zm17.573-7.662c0 2.361-.159 4.062-.468 5.144-.618 1.899-1.855 2.869-3.695 2.869-1.646 0-3.234-.914-4.781-2.824v2.474h-4.625V45.578h4.625v11.189c1.494-1.839 3.08-2.769 4.781-2.769 1.84 0 3.078.969 3.695 2.88.311 1.027.468 2.715.468 5.132v10.167zm17.457-4.259h-9.251v4.525c0 2.363.773 3.543 2.363 3.543 1.139 0 1.802-.619 2.066-1.855.043-.251.104-1.279.104-3.134h4.719v.675c0 1.491-.057 2.518-.099 2.98a6.591 6.591 0 0 1-1.08 2.771c-1.281 1.854-3.179 2.768-5.595 2.768-2.42 0-4.262-.871-5.599-2.614-.981-1.278-1.485-3.29-1.485-6.003v-8.941c0-2.729.447-4.725 1.43-6.015 1.336-1.747 3.177-2.617 5.54-2.617 2.321 0 4.161.87 5.457 2.617.969 1.29 1.432 3.286 1.432 6.015v5.285h-.002z"/><path d="M70.978 58.163c-1.546 0-2.321 1.181-2.321 3.541v2.362h4.625v-2.362c-.001-2.36-.774-3.541-2.304-3.541zm-17.166 0c-.762 0-1.534.36-2.307 1.125v15.559c.772.774 1.545 1.14 2.307 1.14 1.334 0 2.012-1.14 2.012-3.445V61.646c0-2.302-.678-3.483-2.012-3.483zm2.584-23.19c1.705 0 3.479-1.036 5.34-3.168v2.814h4.675V8.82h-4.675v19.718c-1.036 1.464-2.018 2.188-2.953 2.188-.626 0-.994-.37-1.096-1.095-.057-.153-.057-.722-.057-1.817V8.82h-4.66v20.4c0 1.822.156 3.055.414 3.836.47 1.307 1.507 1.917 3.012 1.917zM23.851 20.598v14.021h5.184V20.598L35.271 0h-5.242l-3.537 13.595L22.812 0h-5.455c1.093 3.209 2.23 6.434 3.323 9.646 1.663 4.828 2.701 8.468 3.171 10.952zm18.368 14.375c2.342 0 4.162-.881 5.453-2.641.981-1.291 1.451-3.325 1.451-6.067v-9.034c0-2.758-.469-4.774-1.451-6.077-1.291-1.765-3.11-2.646-5.453-2.646-2.33 0-4.149.881-5.443 2.646-.993 1.303-1.463 3.319-1.463 6.077v9.034c0 2.742.47 4.776 1.463 6.067 1.293 1.76 3.113 2.641 5.443 2.641zm-2.231-18.679c0-2.387.724-3.577 2.231-3.577s2.229 1.189 2.229 3.577v10.852c0 2.387-.722 3.581-2.229 3.581-1.507 0-2.231-1.194-2.231-3.581V16.294z"/></g></svg></svg>