<?xml version="1.0" encoding="UTF-8" standalone="no"?>
<!-- Generator: Adobe Illustrator 16.0.0, SVG Export Plug-In . SVG Version: 6.00 Build 0)  -->

<svg
   xmlns:dc="http://purl.org/dc/elements/1.1/"
   xmlns:cc="http://creativecommons.org/ns#"
   xmlns:rdf="http://www.w3.org/1999/02/22-rdf-syntax-ns#"
   xmlns:svg="http://www.w3.org/2000/svg"
   xmlns="http://www.w3.org/2000/svg"
   xmlns:sodipodi="http://sodipodi.sourceforge.net/DTD/sodipodi-0.dtd"
   xmlns:inkscape="http://www.inkscape.org/namespaces/inkscape"
   version="1.1"
   id="Capa_1"
   x="0px"
   y="0px"
   width="612px"
   height="612px"
   viewBox="0 0 612 612"
   style="enable-background:new 0 0 612 612;"
   xml:space="preserve"
   sodipodi:docname="graphberry-email-filled-closed-envelope.svg"
   inkscape:version="0.92.3 (2405546, 2018-03-11)"><metadata
   id="metadata4979"><rdf:RDF><cc:Work
       rdf:about=""><dc:format>image/svg+xml</dc:format><dc:type
         rdf:resource="http://purl.org/dc/dcmitype/StillImage" /></cc:Work></rdf:RDF></metadata><defs
   id="defs4977" /><sodipodi:namedview
   pagecolor="#ffffff"
   bordercolor="#666666"
   borderopacity="1"
   objecttolerance="10"
   gridtolerance="10"
   guidetolerance="10"
   inkscape:pageopacity="0"
   inkscape:pageshadow="2"
   inkscape:window-width="737"
   inkscape:window-height="480"
   id="namedview4975"
   showgrid="false"
   inkscape:zoom="0.38562092"
   inkscape:cx="306"
   inkscape:cy="306"
   inkscape:window-x="0"
   inkscape:window-y="0"
   inkscape:window-maximized="0"
   inkscape:current-layer="Capa_1" />
<g
   id="g4942"
   style="fill:#ffffff">
	<path
   d="M306.768,346.814h0.131c4.615,0,9.176-1.339,12.866-3.777l1.001-0.643c0.218-0.142,0.446-0.271,0.675-0.424l11.658-9.645   l278.259-229.624c-0.576-0.795-1.557-1.339-2.602-1.339H3.233c-0.751,0-1.448,0.272-2.003,0.729l291.125,239.954   C296.024,345.083,301.259,346.814,306.768,346.814z M0,133.899v340.37l208.55-168.471L0,133.899z M403.668,306.941L612,474.356   V135.031L403.668,306.941z M337.431,361.585c-8.305,6.814-19.168,10.57-30.576,10.57c-11.451,0-22.304-3.734-30.587-10.516   l-47.765-39.394L0,506.806v0.587c0,1.753,1.502,3.244,3.276,3.244h605.491c1.741,0,3.232-1.491,3.232-3.255v-0.544L383.693,323.4   L337.431,361.585z"
   id="path4940"
   style="fill:#ffffff" />
</g>
<g
   id="g4944">
</g>
<g
   id="g4946">
</g>
<g
   id="g4948">
</g>
<g
   id="g4950">
</g>
<g
   id="g4952">
</g>
<g
   id="g4954">
</g>
<g
   id="g4956">
</g>
<g
   id="g4958">
</g>
<g
   id="g4960">
</g>
<g
   id="g4962">
</g>
<g
   id="g4964">
</g>
<g
   id="g4966">
</g>
<g
   id="g4968">
</g>
<g
   id="g4970">
</g>
<g
   id="g4972">
</g>
</svg>